<svg width="50" height="50" viewBox="0 0 50 50" fill="none" xmlns="http://www.w3.org/2000/svg">
<g filter="url(#filter0_bi_3_19)">
<rect width="50" height="50" rx="20" fill="#D9D9D9" fill-opacity="0.2"/>
</g>
<path d="M24.8316 16.8073C22.7025 16.8073 20.6606 17.6531 19.1551 19.1586C17.6496 20.6641 16.8038 22.706 16.8038 24.8351C16.8038 26.9642 17.6496 29.0061 19.1551 30.5116C20.6606 32.0171 22.7025 32.8629 24.8316 32.8629C26.9607 32.8629 29.0026 32.0171 30.5081 30.5116C32.0136 29.0061 32.8594 26.9642 32.8594 24.8351C32.8594 22.706 32.0136 20.6641 30.5081 19.1586C29.0026 17.6531 26.9607 16.8073 24.8316 16.8073ZM24.8316 30.0486C23.4484 30.0486 22.1219 29.4992 21.1438 28.5211C20.1658 27.543 19.6163 26.2165 19.6163 24.8333C19.6163 23.4502 20.1658 22.1236 21.1438 21.1456C22.1219 20.1675 23.4484 19.6181 24.8316 19.6181C26.2148 19.6181 27.5413 20.1675 28.5194 21.1456C29.4974 22.1236 30.0469 23.4502 30.0469 24.8333C30.0469 26.2165 29.4974 27.543 28.5194 28.5211C27.5413 29.4992 26.2148 30.0486 24.8316 30.0486Z" fill="white"/>
<path d="M33.1771 18.3837C34.2107 18.3837 35.0486 17.5458 35.0486 16.5122C35.0486 15.4785 34.2107 14.6406 33.1771 14.6406C32.1435 14.6406 31.3056 15.4785 31.3056 16.5122C31.3056 17.5458 32.1435 18.3837 33.1771 18.3837Z" fill="white"/>
<path d="M39.6476 14.6094C39.2457 13.5715 38.6315 12.629 37.8443 11.8421C37.0572 11.0553 36.1144 10.4414 35.0764 10.0399C33.8617 9.58395 32.5784 9.33739 31.2813 9.31076C29.6094 9.23784 29.0799 9.21701 24.8403 9.21701C20.6007 9.21701 20.0573 9.21701 18.3993 9.31076C17.1031 9.33603 15.8208 9.58264 14.6076 10.0399C13.5693 10.441 12.6263 11.0546 11.8391 11.8415C11.0519 12.6284 10.4379 13.5712 10.0365 14.6094C9.58039 15.824 9.3344 17.1074 9.30903 18.4045C9.23438 20.0746 9.21181 20.6042 9.21181 24.8455C9.21181 29.0851 9.21181 29.625 9.30903 31.2865C9.33507 32.5851 9.57986 33.8663 10.0365 35.0833C10.439 36.1211 11.0536 37.0635 11.841 37.8503C12.6284 38.6371 13.5713 39.251 14.6094 39.6528C15.8202 40.1271 17.1031 40.3913 18.4028 40.434C20.0747 40.5069 20.6042 40.5295 24.8438 40.5295C29.0833 40.5295 29.6267 40.5295 31.2847 40.434C32.5818 40.4076 33.865 40.1617 35.0799 39.7066C36.1176 39.3041 37.0601 38.6898 37.8472 37.9027C38.6342 37.1157 39.2486 36.1732 39.651 35.1354C40.1076 33.9201 40.3524 32.6389 40.3785 31.3403C40.4531 29.6701 40.4757 29.1406 40.4757 24.8993C40.4757 20.658 40.4757 20.1198 40.3785 18.4583C40.3583 17.1428 40.111 15.8407 39.6476 14.6094ZM37.533 31.158C37.5218 32.1585 37.3392 33.1497 36.9931 34.0885C36.7323 34.7637 36.3332 35.3767 35.8213 35.8883C35.3094 36.3999 34.6961 36.7987 34.0208 37.059C33.0924 37.4035 32.1117 37.5862 31.1215 37.599C29.4722 37.6753 29.0069 37.6944 24.7778 37.6944C20.5451 37.6944 20.1128 37.6944 18.4323 37.599C17.4426 37.5868 16.4624 37.4042 15.5347 37.059C14.8571 36.8003 14.2413 36.4022 13.7272 35.8905C13.2132 35.3789 12.8122 34.7649 12.5503 34.0885C12.2091 33.1598 12.0266 32.1803 12.0104 31.191C11.9358 29.5417 11.9184 29.0764 11.9184 24.8472C11.9184 20.6163 11.9184 20.184 12.0104 18.5017C12.0216 17.5018 12.2043 16.5111 12.5503 15.5729C13.0799 14.2031 14.1649 13.125 15.5347 12.6007C16.4628 12.2572 17.4428 12.0746 18.4323 12.0608C20.0833 11.9861 20.5469 11.9653 24.7778 11.9653C29.0087 11.9653 29.4427 11.9653 31.1215 12.0608C32.1118 12.0727 33.0926 12.2553 34.0208 12.6007C34.6961 12.8616 35.3093 13.2608 35.8211 13.7726C36.333 14.2845 36.7322 14.8977 36.9931 15.5729C37.3343 16.5016 37.5168 17.4812 37.533 18.4705C37.6076 20.1215 37.6267 20.5851 37.6267 24.816C37.6267 29.0451 37.6267 29.5 37.5521 31.1597H37.533V31.158Z" fill="white"/>
<defs>
<filter id="filter0_bi_3_19" x="-40" y="-40" width="130" height="130" filterUnits="userSpaceOnUse" color-interpolation-filters="sRGB">
<feFlood flood-opacity="0" result="BackgroundImageFix"/>
<feGaussianBlur in="BackgroundImageFix" stdDeviation="20"/>
<feComposite in2="SourceAlpha" operator="in" result="effect1_backgroundBlur_3_19"/>
<feBlend mode="normal" in="SourceGraphic" in2="effect1_backgroundBlur_3_19" result="shape"/>
<feColorMatrix in="SourceAlpha" type="matrix" values="0 0 0 0 0 0 0 0 0 0 0 0 0 0 0 0 0 0 127 0" result="hardAlpha"/>
<feOffset/>
<feGaussianBlur stdDeviation="1"/>
<feComposite in2="hardAlpha" operator="arithmetic" k2="-1" k3="1"/>
<feColorMatrix type="matrix" values="0 0 0 0 0 0 0 0 0 0 0 0 0 0 0 0 0 0 0.25 0"/>
<feBlend mode="normal" in2="shape" result="effect2_innerShadow_3_19"/>
</filter>
</defs>
</svg>
