<svg width="50" height="50" viewBox="0 0 50 50" fill="none" xmlns="http://www.w3.org/2000/svg">
<g filter="url(#filter0_bi_3_18)">
<rect width="50" height="50" rx="20" fill="#D9D9D9" fill-opacity="0.2"/>
</g>
<path d="M13.305 16.995C15.319 16.995 16.9517 15.3623 16.9517 13.3483C16.9517 11.3343 15.319 9.70166 13.305 9.70166C11.291 9.70166 9.65833 11.3343 9.65833 13.3483C9.65833 15.3623 11.291 16.995 13.305 16.995Z" fill="white"/>
<path d="M20.395 19.7583V39.99H26.6767V29.985C26.6767 27.345 27.1733 24.7883 30.4467 24.7883C33.675 24.7883 33.715 27.8067 33.715 30.1517V39.9917H40V28.8967C40 23.4467 38.8267 19.2583 32.4567 19.2583C29.3983 19.2583 27.3483 20.9367 26.51 22.525H26.425V19.7583H20.395ZM10.1583 19.7583H16.45V39.99H10.1583V19.7583Z" fill="white"/>
<defs>
<filter id="filter0_bi_3_18" x="-40" y="-40" width="130" height="130" filterUnits="userSpaceOnUse" color-interpolation-filters="sRGB">
<feFlood flood-opacity="0" result="BackgroundImageFix"/>
<feGaussianBlur in="BackgroundImageFix" stdDeviation="20"/>
<feComposite in2="SourceAlpha" operator="in" result="effect1_backgroundBlur_3_18"/>
<feBlend mode="normal" in="SourceGraphic" in2="effect1_backgroundBlur_3_18" result="shape"/>
<feColorMatrix in="SourceAlpha" type="matrix" values="0 0 0 0 0 0 0 0 0 0 0 0 0 0 0 0 0 0 127 0" result="hardAlpha"/>
<feOffset/>
<feGaussianBlur stdDeviation="1"/>
<feComposite in2="hardAlpha" operator="arithmetic" k2="-1" k3="1"/>
<feColorMatrix type="matrix" values="0 0 0 0 0 0 0 0 0 0 0 0 0 0 0 0 0 0 0.25 0"/>
<feBlend mode="normal" in2="shape" result="effect2_innerShadow_3_18"/>
</filter>
</defs>
</svg>
