<svg width="50" height="50" viewBox="0 0 50 50" fill="none" xmlns="http://www.w3.org/2000/svg">
<g filter="url(#filter0_bi_3_27)">
<rect width="50" height="50" rx="20" fill="#D9D9D9" fill-opacity="0.2"/>
</g>
<path fill-rule="evenodd" clip-rule="evenodd" d="M35.6717 14.3883C34.2856 12.9931 32.6364 11.8869 30.8198 11.1336C29.0031 10.3803 27.055 9.995 25.0883 10C16.8417 10 10.1283 16.7117 10.125 24.9617C10.125 27.5983 10.8133 30.1717 12.1217 32.4417L10 40.1933L17.9317 38.1117C20.1257 39.306 22.5837 39.9322 25.0817 39.9333H25.0883C33.3333 39.9333 40.0467 33.2217 40.05 24.9717C40.0557 23.0058 39.6716 21.0583 38.9201 19.2418C38.1686 17.4252 37.0645 15.7756 35.6717 14.3883ZM25.0883 37.4083H25.0833C22.8559 37.4086 20.6694 36.8093 18.7533 35.6733L18.3 35.4033L13.5933 36.6383L14.8483 32.05L14.5533 31.58C13.308 29.5974 12.6487 27.303 12.6517 24.9617C12.655 18.105 18.2333 12.5267 25.0933 12.5267C26.7271 12.523 28.3453 12.8435 29.8544 13.4694C31.3635 14.0954 32.7335 15.0144 33.885 16.1733C35.0427 17.3267 35.9603 18.6982 36.5848 20.2083C37.2093 21.7185 37.5283 23.3375 37.5233 24.9717C37.52 31.8283 31.9417 37.4083 25.0883 37.4083ZM31.91 28.0933C31.535 27.905 29.6983 27.0017 29.355 26.8767C29.0133 26.7517 28.765 26.69 28.515 27.0633C28.265 27.4367 27.5483 28.2783 27.33 28.5283C27.1117 28.7783 26.8933 28.8083 26.52 28.6217C26.1467 28.435 24.9417 28.04 23.5133 26.7667C22.4017 25.775 21.6517 24.5517 21.4333 24.1767C21.215 23.8017 21.41 23.6 21.5983 23.4133C21.7667 23.2467 21.9717 22.9767 22.1583 22.7583C22.345 22.54 22.4067 22.385 22.5317 22.135C22.6567 21.885 22.595 21.6667 22.5 21.48C22.4067 21.2917 21.6583 19.4517 21.3467 18.7033C21.045 17.9783 20.7367 18.075 20.5067 18.065C20.2685 18.0553 20.0301 18.0508 19.7917 18.0517C19.6021 18.0565 19.4156 18.1004 19.2438 18.1807C19.072 18.2611 18.9186 18.376 18.7933 18.5183C18.45 18.8933 17.485 19.7967 17.485 21.6367C17.485 23.4767 18.825 25.255 19.0117 25.505C19.1983 25.755 21.6483 29.53 25.3983 31.15C26.2917 31.535 26.9883 31.765 27.53 31.9383C28.425 32.2233 29.24 32.1817 29.885 32.0867C30.6033 31.98 32.0967 31.1833 32.4083 30.31C32.72 29.4367 32.72 28.6883 32.6267 28.5317C32.5333 28.375 32.2817 28.28 31.91 28.0933Z" fill="white"/>
<defs>
<filter id="filter0_bi_3_27" x="-40" y="-40" width="130" height="130" filterUnits="userSpaceOnUse" color-interpolation-filters="sRGB">
<feFlood flood-opacity="0" result="BackgroundImageFix"/>
<feGaussianBlur in="BackgroundImageFix" stdDeviation="20"/>
<feComposite in2="SourceAlpha" operator="in" result="effect1_backgroundBlur_3_27"/>
<feBlend mode="normal" in="SourceGraphic" in2="effect1_backgroundBlur_3_27" result="shape"/>
<feColorMatrix in="SourceAlpha" type="matrix" values="0 0 0 0 0 0 0 0 0 0 0 0 0 0 0 0 0 0 127 0" result="hardAlpha"/>
<feOffset/>
<feGaussianBlur stdDeviation="1"/>
<feComposite in2="hardAlpha" operator="arithmetic" k2="-1" k3="1"/>
<feColorMatrix type="matrix" values="0 0 0 0 0 0 0 0 0 0 0 0 0 0 0 0 0 0 0.25 0"/>
<feBlend mode="normal" in2="shape" result="effect2_innerShadow_3_27"/>
</filter>
</defs>
</svg>
